HIERARCHY
ROOT Hips
{
  OFFSET 5.84602e-005 68.8428 3.50346
  CHANNELS 6 Xposition Yposition Zposition Zrotation Xrotation Yrotation
  JOINT Spine
  {
    OFFSET 0 8.597 -4.6522
    CHANNELS 3 Zrotation Xrotation Yrotation
    JOINT Spine1
    {
      OFFSET 0 7.8454 0.4098
      CHANNELS 3 Zrotation Xrotation Yrotation
      JOINT Spine2
      {
        OFFSET 0 9.7078 -2.1609
        CHANNELS 3 Zrotation Xrotation Yrotation
        JOINT Neck
        {
          OFFSET 0 21.8761 -0.4549
          CHANNELS 3 Zrotation Xrotation Yrotation
          JOINT Head
          {
            OFFSET 0 12.3537 3.3602
            CHANNELS 3 Zrotation Xrotation Yrotation
            End Site
            {
              OFFSET 0.0001 18.9506 0.5657
            }
          }
        }
        JOINT LeftShoulder
        {
          OFFSET 2.2086 21.1115 7.2329
          CHANNELS 3 Zrotation Xrotation Yrotation
          JOINT LeftArm
          {
            OFFSET 13.1193 3.0282 -4.8998
            CHANNELS 3 Zrotation Xrotation Yrotation
            JOINT LeftForeArm
            {
              OFFSET 27.4081 -0.0973053 -0.2375
              CHANNELS 3 Zrotation Xrotation Yrotation
              JOINT LeftHand
              {
                OFFSET 22.8641 0.0662994 -0.1369
                CHANNELS 3 Zrotation Xrotation Yrotation
                JOINT LeftHandIndex1
                {
                  OFFSET 8.8614 0.775009 2.4612
                  CHANNELS 3 Zrotation Xrotation Yrotation
                  JOINT LeftHandIndex2
                  {
                    OFFSET 3.3146 -0.808304 0.5841
                    CHANNELS 3 Zrotation Xrotation Yrotation
                    JOINT LeftHandIndex3
                    {
                      OFFSET 2.2628 -0.552002 0.3989
                      CHANNELS 3 Zrotation Xrotation Yrotation
                      End Site
                      {
                        OFFSET 1.6102 -0.4807 0.2612
                      }
                    }
                  }
                }
                JOINT LeftHandMiddle1
                {
                  OFFSET 8.9937 0.895004 0.2143
                  CHANNELS 3 Zrotation Xrotation Yrotation
                  JOINT LeftHandMiddle2
                  {
                    OFFSET 4.0984 0.0113983 -0.0242
                    CHANNELS 3 Zrotation Xrotation Yrotation
                    JOINT LeftHandMiddle3
                    {
                      OFFSET 2.2716 0.00689697 -0.0138001
                      CHANNELS 3 Zrotation Xrotation Yrotation
                      End Site
                      {
                        OFFSET 2.0404 -0.1441 0.0027
                      }
                    }
                  }
                }
                JOINT LeftHandRing1
                {
                  OFFSET 8.5234 0.597198 -2.0164
                  CHANNELS 3 Zrotation Xrotation Yrotation
                  JOINT LeftHandRing2
                  {
                    OFFSET 3.7188 -0.188293 -0.2328
                    CHANNELS 3 Zrotation Xrotation Yrotation
                    JOINT LeftHandRing3
                    {
                      OFFSET 2.1191 -0.106598 -0.1332
                      CHANNELS 3 Zrotation Xrotation Yrotation
                      End Site
                      {
                        OFFSET 1.8737 -0.2304 -0.0886
                      }
                    }
                  }
                }
                JOINT LeftHandPinky1
                {
                  OFFSET 7.9094 -0.601089 -3.4825
                  CHANNELS 3 Zrotation Xrotation Yrotation
                  JOINT LeftHandPinky2
                  {
                    OFFSET 2.2874 -0.477005 -0.6314
                    CHANNELS 3 Zrotation Xrotation Yrotation
                    JOINT LeftHandPinky3
                    {
                      OFFSET 1.6774 -0.349396 -0.4633
                      CHANNELS 3 Zrotation Xrotation Yrotation
                      End Site
                      {
                        OFFSET 1.4888 -0.4091 -0.3416
                      }
                    }
                  }
                }
                JOINT LeftHandThumb1
                {
                  OFFSET 1.833 -1.3875 1.3896
                  CHANNELS 3 Zrotation Xrotation Yrotation
                  JOINT LeftHandThumb2
                  {
                    OFFSET 3.4129 -1.121 2.5732
                    CHANNELS 3 Zrotation Xrotation Yrotation
                    JOINT LeftHandThumb3
                    {
                      OFFSET 2.2474 -0.804199 1.6192
                      CHANNELS 3 Zrotation Xrotation Yrotation
                      End Site
                      {
                        OFFSET 1.6527 -0.5689 1.1317
                      }
                    }
                  }
                }
              }
            }
          }
        }
        JOINT RightShoulder
        {
          OFFSET -2.2086 21.1115 7.2329
          CHANNELS 3 Zrotation Xrotation Yrotation
          JOINT RightArm
          {
            OFFSET -13.1216 3.0287 -4.9007
            CHANNELS 3 Zrotation Xrotation Yrotation
            JOINT RightForeArm
            {
              OFFSET -27.4081 -0.0973053 -0.2375
              CHANNELS 3 Zrotation Xrotation Yrotation
              JOINT RightHand
              {
                OFFSET -22.8641 0.0664063 -0.1369
                CHANNELS 3 Zrotation Xrotation Yrotation
                JOINT RightHandIndex1
                {
                  OFFSET -8.8614 0.774994 2.4612
                  CHANNELS 3 Zrotation Xrotation Yrotation
                  JOINT RightHandIndex2
                  {
                    OFFSET -3.3146 -0.808304 0.5841
                    CHANNELS 3 Zrotation Xrotation Yrotation
                    JOINT RightHandIndex3
                    {
                      OFFSET -2.2628 -0.552002 0.3989
                      CHANNELS 3 Zrotation Xrotation Yrotation
                      End Site
                      {
                        OFFSET -1.6102 -0.4807 0.2612
                      }
                    }
                  }
                }
                JOINT RightHandMiddle1
                {
                  OFFSET -8.9937 0.894989 0.2143
                  CHANNELS 3 Zrotation Xrotation Yrotation
                  JOINT RightHandMiddle2
                  {
                    OFFSET -4.0984 0.0113983 -0.0242
                    CHANNELS 3 Zrotation Xrotation Yrotation
                    JOINT RightHandMiddle3
                    {
                      OFFSET -2.2716 0.00691223 -0.0138001
                      CHANNELS 3 Zrotation Xrotation Yrotation
                      End Site
                      {
                        OFFSET -2.0404 -0.1441 0.0027
                      }
                    }
                  }
                }
                JOINT RightHandRing1
                {
                  OFFSET -8.5234 0.597198 -2.0164
                  CHANNELS 3 Zrotation Xrotation Yrotation
                  JOINT RightHandRing2
                  {
                    OFFSET -3.7188 -0.188309 -0.2328
                    CHANNELS 3 Zrotation Xrotation Yrotation
                    JOINT RightHandRing3
                    {
                      OFFSET -2.1191 -0.106598 -0.1332
                      CHANNELS 3 Zrotation Xrotation Yrotation
                      End Site
                      {
                        OFFSET -1.8737 -0.2304 -0.0886
                      }
                    }
                  }
                }
                JOINT RightHandPinky1
                {
                  OFFSET -7.9094 -0.601105 -3.4825
                  CHANNELS 3 Zrotation Xrotation Yrotation
                  JOINT RightHandPinky2
                  {
                    OFFSET -2.2874 -0.477005 -0.6314
                    CHANNELS 3 Zrotation Xrotation Yrotation
                    JOINT RightHandPinky3
                    {
                      OFFSET -1.6774 -0.349396 -0.4633
                      CHANNELS 3 Zrotation Xrotation Yrotation
                      End Site
                      {
                        OFFSET -1.4888 -0.4091 -0.3416
                      }
                    }
                  }
                }
                JOINT RightHandThumb1
                {
                  OFFSET -1.833 -1.38751 1.3896
                  CHANNELS 3 Zrotation Xrotation Yrotation
                  JOINT RightHandThumb2
                  {
                    OFFSET -3.41299 -1.12099 2.5732
                    CHANNELS 3 Zrotation Xrotation Yrotation
                    JOINT RightHandThumb3
                    {
                      OFFSET -2.24741 -0.804108 1.6192
                      CHANNELS 3 Zrotation Xrotation Yrotation
                      End Site
                      {
                        OFFSET -1.6527 -0.5689 1.1317
                      }
                    }
                  }
                }
              }
            }
          }
        }
      }
    }
  }
  JOINT RightUpLeg
  {
    OFFSET -9.1966 3.8861 -0.7581
    CHANNELS 3 Zrotation Xrotation Yrotation
    JOINT RightLeg
    {
      OFFSET -0.7359 -41.0265 0
      CHANNELS 3 Zrotation Xrotation Yrotation
      JOINT RightFoot
      {
        OFFSET 0 -40.2855 0
        CHANNELS 3 Zrotation Xrotation Yrotation
        JOINT RightToeBase
        {
          OFFSET 0 -5.6122 11.7359
          CHANNELS 3 Zrotation Xrotation Yrotation
          End Site
          {
            OFFSET 0 0 7.8731
          }
        }
      }
    }
  }
  JOINT LeftUpLeg
  {
    OFFSET 9.1965 3.8864 -0.7581
    CHANNELS 3 Zrotation Xrotation Yrotation
    JOINT LeftLeg
    {
      OFFSET 0.7359 -41.0268 0
      CHANNELS 3 Zrotation Xrotation Yrotation
      JOINT LeftFoot
      {
        OFFSET 0 -40.2855 0
        CHANNELS 3 Zrotation Xrotation Yrotation
        JOINT LeftToeBase
        {
          OFFSET 0 -5.6122 11.7359
          CHANNELS 3 Zrotation Xrotation Yrotation
          End Site
          {
            OFFSET 0 0 7.8731
          }
        }
      }
    }
  }
}
MOTION
Frames:	4
Frame Time:	0.0333333
-0.00115257 0.191567 -49.3614 -180 -89.9981 -180 -0.100517 13.517 -0.0999239 -0.184018 27.0341 -0.182621 -0.184018 27.0341 -0.182622 14.167 27.4506 -6.62997 17.4871 -5.73409 -2.8463 7.96465 -11.6281 3.84823 -75.6588 -14.2299 2.97717 -18.5343 7.33246 -92.7799 -24.4177 15.35 16.6126 -2.48481e-015 2.78299e-015 -3.18055e-015 -1.3418e-015 -6.4605e-016 -0 -2.98177e-015 5.34234e-015 3.18055e-015 -2.48481e-015 2.78299e-015 -3.18055e-015 -0.0146151 -8.76867e-005 -5.9158e-006 8.7372e-007 -1.57748e-006 1.89991e-006 -2.48481e-015 2.78299e-015 -3.18055e-015 -0.018739 -0.00117419 6.25859e-005 -1.09332e-015 2.08724e-015 -3.18055e-015 -2.48481e-015 2.78299e-015 -3.18055e-015 -0.0122697 -0.00324612 0.000671246 2.93207e-015 6.53505e-015 -0 -2.48481e-015 2.78299e-015 -3.18055e-015 -1.3418e-015 -6.4605e-016 -0 -2.98177e-015 5.34234e-015 3.18055e-015 -7.89138 -11.7561 -4.67484 79.1863 -0.26285 -30.7022 -32.7394 9.95182 80.0918 4.03262 21.5384 0.915284 -1.81978e-006 4.02524e-007 3.12256e-007 7.95139e-016 1.78906e-015 -1.59028e-015 -1.81978e-006 4.02524e-007 3.12256e-007 -1.81978e-006 4.02524e-007 3.12256e-007 0.014998 -9.22775e-005 -4.38672e-006 -1.81974e-006 4.02564e-007 3.12204e-007 -1.81978e-006 4.02524e-007 3.12256e-007 0.0189883 -0.00119141 -5.53916e-005 -1.81973e-006 4.02572e-007 3.12208e-007 -1.81978e-006 4.02524e-007 3.12256e-007 0.0122733 -0.00324835 -0.000674891 -1.81974e-006 4.02539e-007 3.12263e-007 -1.81978e-006 4.02524e-007 3.12256e-007 7.95139e-016 1.78906e-015 -1.59028e-015 -1.81978e-006 4.02524e-007 3.12256e-007 -15.4429 1.03414 -1.20442 1.40609 9.89453 -0.872429 -9.22345 12.693 -0.648985 6.99354e-007 1.49539e-007 -4.57666e-007 15.5936 0.602648 1.21902 -1.39676 10.0453 0.868284 9.2205 12.6804 0.646808 1.87733e-006 8.95789e-006 -2.8436e-006 
-0.00121912 0.191656 -49.3614 -180 -89.9981 -180 -0.100484 13.5107 -0.0999557 -0.183947 27.0215 -0.182702 -0.183947 27.0215 -0.182702 14.146 27.4864 -6.62798 17.7611 -5.64374 -2.9054 7.96465 -11.6281 3.84823 -75.6587 -14.2299 2.97717 -18.5342 7.33247 -92.7799 -24.4177 15.3501 16.6127 -1.09332e-015 -1.09332e-015 3.18055e-015 -2.88238e-015 -1.9133e-015 -3.18055e-015 -3.97569e-016 3.60297e-015 -0 -1.09332e-015 -1.09332e-015 3.18055e-015 -0.0146189 -8.66591e-005 -2.1747e-006 -2.20481e-006 4.41272e-007 -1.22845e-006 -1.09332e-015 -1.09332e-015 3.18055e-015 -0.0187447 -0.00117614 6.36477e-005 4.87022e-015 -9.96408e-015 3.18055e-015 -1.09332e-015 -1.09332e-015 3.18055e-015 -0.0122664 -0.00325199 0.000678076 -9.44227e-016 -6.43565e-015 -0 -1.09332e-015 -1.09332e-015 3.18055e-015 -2.88238e-015 -1.9133e-015 -3.18055e-015 -3.97569e-016 3.60297e-015 -0 -7.89138 -11.7561 -4.67483 79.2066 -0.271731 -30.7061 -32.7394 9.95185 80.0917 4.0031 21.5179 0.925753 -8.86215e-007 4.97552e-007 -9.72037e-006 -1.59028e-015 7.95139e-015 -0 4.53036e-007 1.66913e-007 -4.51297e-006 -8.86215e-007 4.97552e-007 -9.72037e-006 0.0149936 -9.05242e-005 1.8627e-006 4.52319e-007 1.66327e-007 -4.51299e-006 -8.86215e-007 4.97552e-007 -9.72037e-006 0.0189962 -0.00119099 -5.46226e-005 4.52086e-007 1.66222e-007 -4.513e-006 -8.86215e-007 4.97552e-007 -9.72037e-006 0.012262 -0.00324674 -0.000678516 4.52324e-007 1.66587e-007 -4.51297e-006 -8.86215e-007 4.97552e-007 -9.72037e-006 -1.59028e-015 7.95139e-015 -0 4.53036e-007 1.66913e-007 -4.51297e-006 -15.4408 1.03307 -1.20406 1.40957 9.87891 -0.872711 -9.2235 12.6951 -0.648806 2.31412e-006 1.20007e-007 4.8308e-007 15.5976 0.609261 1.21953 -1.39082 10.0729 0.867809 9.22042 12.6768 0.647103 2.53477e-006 2.10532e-007 2.33313e-006 
-0.00128414 0.191746 -49.3614 -180 -89.9981 -180 -0.100452 13.5044 -0.0999877 -0.183876 27.0089 -0.182783 -0.183875 27.009 -0.182783 14.1249 27.522 -6.62592 18.0351 -5.55369 -2.96491 7.96465 -11.6281 3.84823 -75.6587 -14.2299 2.97719 -18.5343 7.33245 -92.7799 -24.4177 15.35 16.6126 -9.93923e-017 -1.88224e-014 3.18055e-015 -2.33572e-015 -1.65364e-014 3.18055e-015 -1.93815e-015 -2.00276e-014 3.18055e-015 -9.93923e-017 -1.88224e-014 3.18055e-015 -0.0146034 -8.90841e-005 -1.01242e-006 5.46658e-016 -2.65874e-015 6.36111e-015 -9.93923e-017 -1.88224e-014 3.18055e-015 -0.0187434 -0.0011724 5.90893e-005 1.59028e-015 -7.03201e-015 -0 -9.93923e-017 -1.88224e-014 3.18055e-015 -0.0122515 -0.00324381 0.000676898 -3.08116e-015 -1.00386e-014 -0 -9.93923e-017 -1.88224e-014 3.18055e-015 -2.33572e-015 -1.65364e-014 3.18055e-015 -1.93815e-015 -2.00276e-014 3.18055e-015 -7.89138 -11.7561 -4.67483 79.2269 -0.280599 -30.7099 -32.7394 9.95187 80.0917 3.97358 21.4974 0.936194 7.95139e-016 1.82882e-014 -1.59028e-015 2.38542e-015 9.74045e-015 -0 -7.95139e-016 1.2921e-014 -3.18055e-015 7.95139e-016 1.82882e-014 -1.59028e-015 0.0149913 -9.20004e-005 5.98775e-006 0 1.98785e-016 -0 7.95139e-016 1.82882e-014 -1.59028e-015 0.0190094 -0.00119502 -5.54365e-005 7.95139e-016 9.74045e-015 1.59028e-015 7.95139e-016 1.82882e-014 -1.59028e-015 0.0122236 -0.00323885 -0.000674082 -9.57715e-008 -2.33918e-007 -3.33692e-006 7.95139e-016 1.82882e-014 -1.59028e-015 2.38542e-015 9.74045e-015 -0 -7.95139e-016 1.2921e-014 -3.18055e-015 -15.4387 1.03172 -1.2037 1.41306 9.86395 -0.873018 -9.22355 12.6968 -0.648668 0 0 -1.59028e-015 15.6015 0.616044 1.22003 -1.38488 10.1 0.867319 9.22035 12.6735 0.647385 -3.87971e-007 2.03419e-006 3.48284e-009 
-0.00134993 0.191835 -49.3614 -180 -89.9981 -180 -0.100419 13.4981 -0.10002 -0.183804 26.9964 -0.182865 -0.183804 26.9964 -0.182865 14.1037 27.5576 -6.62378 18.3091 -5.46396 -3.02483 7.96466 -11.6281 3.84823 -75.6587 -14.2299 2.97718 -18.5343 7.33245 -92.7799 -24.4177 15.35 16.6126 -2.28602e-015 -1.73937e-016 9.54166e-015 2.78323e-006 2.83629e-006 -1.36812e-006 -9.93923e-017 1.10574e-015 -3.18055e-015 -2.28602e-015 -1.73937e-016 9.54166e-015 -0.0146257 -8.72597e-005 -2.23598e-006 -3.47873e-016 -1.52816e-015 -0 -2.28602e-015 -1.73937e-016 9.54166e-015 -0.0187317 -0.00117982 6.21952e-005 2.20284e-006 -4.40992e-007 1.2347e-006 -2.28602e-015 -1.73937e-016 9.54166e-015 -0.0122622 -0.00324715 0.000672259 3.03147e-015 -3.19298e-015 -0 -2.28602e-015 -1.73937e-016 9.54166e-015 2.78323e-006 2.83629e-006 -1.36812e-006 -9.93923e-017 1.10574e-015 -3.18055e-015 -7.89138 -11.7561 -4.67483 79.2472 -0.289471 -30.7137 -32.7394 9.95187 80.0917 3.94409 21.4769 0.946654 7.95139e-016 -7.95139e-016 -1.59028e-015 -8.87385e-008 -2.26382e-007 -3.33959e-006 5.42965e-007 4.01458e-007 -1.17536e-006 7.95139e-016 -7.95139e-016 -1.59028e-015 0.0149862 -9.32827e-005 -6.9736e-006 -1.59028e-015 -1.39149e-015 3.18055e-015 7.95139e-016 -7.95139e-016 -1.59028e-015 0.019017 -0.0011925 -5.82188e-005 -0 -7.95139e-015 -0 7.95139e-016 -7.95139e-016 -1.59028e-015 0.0122883 -0.00325431 -0.000688721 5.43987e-007 4.01055e-007 -1.17548e-006 7.95139e-016 -7.95139e-016 -1.59028e-015 -8.87385e-008 -2.26382e-007 -3.33959e-006 5.42965e-007 4.01458e-007 -1.17536e-006 -15.4366 1.03058 -1.20335 1.41655 9.84852 -0.873305 -9.22361 12.6987 -0.648495 -2.09759e-006 -4.48305e-007 1.37386e-006 15.6054 0.622741 1.22055 -1.37893 10.1273 0.866819 9.22027 12.67 0.647678 -1.3966e-006 3.01158e-007 9.17552e-007 
